<svg width="356" height="64" viewBox="0 0 356 64" fill="none" xmlns="http://www.w3.org/2000/svg">
<path d="M208.089 62.609V58.268H203.702V62.609H201.321V51.795H203.702V56.074H208.089V51.795H210.47V62.609H208.089ZM212.91 62.609V51.795H221.05V53.91H215.258V56.104H220.358V58.221H215.258V60.491H221.129V62.609H212.91ZM231.202 62.609L230.214 60.182H225.639L224.653 62.609H222.225L226.861 51.717H229.055L233.691 62.609H231.204H231.202ZM227.927 54.576L226.489 58.082H229.364L227.927 54.576ZM235.016 62.609V51.795H237.397V60.463H242.789V62.609H235.016ZM247.811 53.989V62.609H245.43V53.989H242.141V51.795H251.1V53.989H247.811ZM259.274 62.609V58.268H254.885V62.609H252.506V51.795H254.885V56.074H259.274V51.795H261.654V62.609H259.274ZM272.143 62.764C270.529 62.764 268.874 62.228 267.554 61.032L268.96 59.349C270.695 60.757 271.928 60.663 272.19 60.663C273.645 60.663 273.751 59.909 273.751 59.627C273.751 59.285 273.876 58.813 271.566 58.236C271.019 58.104 270.522 57.954 270.078 57.789C268.52 57.209 267.973 56.272 267.973 54.915C267.973 51.706 271.432 51.64 271.741 51.64C272.358 51.64 274.07 51.672 275.757 53.016L274.522 54.807C273.512 54.119 272.605 53.74 271.711 53.74C270.444 53.74 270.321 54.443 270.321 54.699C270.321 54.979 270.267 55.431 271.505 55.812C272.564 56.134 273.212 56.24 274.124 56.623C275.598 57.241 276.098 58.161 276.098 59.396C276.098 60.938 275.144 62.764 272.143 62.764ZM277.966 62.609V51.795H286.109V53.91H280.314V56.104H285.415V58.221H280.314V60.491H286.186V62.609H277.966ZM294.791 62.609L292.475 59.147H290.605V62.609H288.224V51.795H293.17C295.759 51.795 297.249 53.124 297.249 55.362V55.394C297.249 55.716 297.326 57.853 294.932 58.747L297.573 62.609H294.791ZM294.838 55.488C294.838 54.08 293.571 53.942 292.969 53.942H290.605V57.047H293.015C294.821 57.047 294.838 55.721 294.838 55.517V55.488ZM304.34 62.686H302.237L297.867 51.795H300.493L303.321 59.411L306.146 51.795H308.711L304.34 62.686ZM310.086 62.609V51.795H312.467V62.609H310.086ZM319.974 62.793C315.447 62.793 314.427 58.89 314.427 57.217C314.427 55.544 315.506 51.611 320.068 51.611C321.512 51.611 322.986 51.932 324.333 53.278L322.817 55.024C321.726 54.04 320.89 53.802 320.051 53.802C317.137 53.802 316.916 56.832 316.916 57.185C316.916 57.533 317.15 60.6 320.051 60.6C320.557 60.6 321.482 60.642 322.896 59.334L324.408 60.863C323.202 62.154 321.965 62.793 319.974 62.793ZM325.937 62.609V51.795H334.08V53.91H328.285V56.104H333.385V58.221H328.285V60.491H334.157V62.609H325.937ZM339.952 62.764C338.338 62.764 336.681 62.228 335.363 61.032L336.768 59.349C338.502 60.757 339.735 60.663 339.998 60.663C341.453 60.663 341.558 59.909 341.558 59.627C341.558 59.285 341.683 58.813 339.375 58.236C338.827 58.104 338.331 57.954 337.886 57.789C336.328 57.209 335.78 56.272 335.78 54.915C335.78 51.706 339.239 51.64 339.549 51.64C340.165 51.64 341.877 51.672 343.566 53.016L342.33 54.807C341.32 54.119 340.414 53.74 339.519 53.74C338.25 53.74 338.129 54.443 338.129 54.699C338.129 54.979 338.075 55.431 339.313 55.812C340.372 56.134 341.021 56.24 341.932 56.623C343.406 57.241 343.907 58.161 343.907 59.396C343.907 60.938 342.948 62.764 339.952 62.764ZM354.672 0.810005V4.827H354.048V2.001L353.183 4.827H352.537L351.675 2.006V4.827H351.051V0.810005H351.903L352.866 4.001L353.832 0.810005H354.672ZM350.117 3.038C350.065 2.964 349.999 2.896 349.918 2.834C349.835 2.778 349.756 2.729 349.675 2.692C349.597 2.657 349.505 2.625 349.397 2.596C349.29 2.566 349.194 2.547 349.115 2.534C349.031 2.52 348.941 2.508 348.832 2.495C348.253 2.429 347.963 2.235 347.963 1.918C347.963 1.81 347.982 1.714 348.032 1.633C348.078 1.55 348.142 1.484 348.223 1.439C348.297 1.39 348.383 1.358 348.479 1.331C348.57 1.309 348.668 1.297 348.766 1.297C348.867 1.297 348.967 1.309 349.058 1.339C349.149 1.368 349.235 1.407 349.314 1.464C349.392 1.52 349.456 1.596 349.51 1.692C349.565 1.788 349.594 1.899 349.606 2.027L350.208 1.925C350.203 1.746 350.154 1.582 350.073 1.432C349.989 1.284 349.878 1.16 349.746 1.064C349.611 0.965005 349.461 0.889005 349.292 0.837005C349.124 0.781005 348.95 0.756005 348.771 0.756005C348.634 0.756005 348.5 0.768005 348.37 0.798005C348.24 0.828005 348.115 0.869005 347.989 0.930005C347.867 0.992005 347.759 1.066 347.663 1.154C347.572 1.241 347.495 1.35 347.439 1.484C347.383 1.616 347.354 1.758 347.354 1.918C347.354 2.562 347.838 2.93601 348.805 3.02801C348.884 3.03601 348.953 3.043 349.017 3.053C349.081 3.062 349.147 3.077 349.218 3.098C349.286 3.117 349.346 3.141 349.399 3.176C349.452 3.208 349.498 3.243 349.542 3.289C349.586 3.333 349.618 3.39 349.641 3.454C349.663 3.517 349.675 3.594 349.675 3.675C349.675 3.881 349.594 4.043 349.427 4.163C349.258 4.282 349.051 4.34 348.805 4.34C348.645 4.34 348.5 4.311 348.373 4.257C348.247 4.197 348.149 4.124 348.078 4.033C348.01 3.943 347.955 3.849 347.919 3.748C347.879 3.648 347.865 3.547 347.865 3.446L347.241 3.56C347.243 3.684 347.265 3.80701 347.302 3.93001C347.341 4.04801 347.401 4.169 347.484 4.286C347.565 4.402 347.665 4.505 347.781 4.593C347.899 4.682 348.044 4.753 348.223 4.804C348.398 4.857 348.594 4.885 348.805 4.885C349.25 4.885 349.606 4.776 349.882 4.552C350.159 4.328 350.297 4.035 350.297 3.677C350.297 3.545 350.282 3.42901 350.25 3.31801C350.21 3.20801 350.169 3.117 350.117 3.038ZM343.907 0.813005H334.587V16.904H321.313V0.813005H311.882V40.981H321.313V25.037H334.587V40.981H343.907V25.037H354.672V16.904H343.907V0.813005ZM277.551 8.844H287.389V40.981H296.71V8.844H306.417V0.813005H277.553V8.844H277.551ZM259.244 18.65H251.454V8.844H259.244C261.138 8.844 263.331 10.841 263.331 13.744C263.331 16.672 261.121 18.65 259.244 18.65ZM263.546 25.855C269.992 24.111 272.652 18.449 272.652 13.597C272.652 6.36501 267.481 0.813005 259.728 0.813005H242.018V40.981H251.449V26.386H253.22L264.875 40.981H275.529L263.546 25.855ZM218.23 41.539C231.308 41.539 235.697 30.86 235.697 20.891C235.697 10.99 231.304 0.255005 218.23 0.255005C205.156 0.255005 200.764 10.99 200.764 20.891C200.764 30.86 205.154 41.539 218.23 41.539ZM218.23 33.68C213.017 33.68 210.408 29.42 210.408 20.895C210.408 12.371 213.017 8.111 218.23 8.111C223.443 8.111 226.052 12.371 226.052 20.895C226.052 29.42 223.443 33.68 218.23 33.68ZM170.626 0.813005H161.549V40.981H170.977V17.363L185.801 40.981H195.011V0.813005H185.579V24.43L170.626 0.813005ZM140.107 18.65H132.315V8.844H140.107C141.999 8.844 144.192 10.841 144.192 13.744C144.192 16.672 141.982 18.65 140.107 18.65ZM144.406 25.855C150.852 24.111 153.513 18.449 153.513 13.597C153.513 6.36501 148.341 0.813005 140.589 0.813005H122.879V40.981H132.31V26.386H134.081L145.736 40.981H156.39L144.406 25.855ZM86.67 40.981H116.074V32.823H96.099V24.473H112.991V16.589H96.099V8.844H116.074V0.813005H86.67V40.981ZM62.961 27.109L54.487 0.813005H44.596L58.601 40.981H67.269L81.546 0.813005H71.492L62.961 27.109ZM40.717 32.823V40.981H11.684V25.037H0.916992V16.904H11.684V0.813005H40.324V8.844H21.289V16.904H32.054V25.037H21.289V32.823H40.717Z" fill="#3EFFC0"/>
</svg>
